{
  "accessors": [
    {
      "bufferView": 2,
      "componentType": 5126,
      "count": 12181,
      "max": [
        0.257607638835907,
        0.4991915822029114,
        0.6603528261184692
      ],
      "min": [
        -0.258409708738327,
        -0.4939553737640381,
        0.0038422076031565666
      ],
      "type": "VEC3"
    },
    {
      "bufferView": 2,
      "byteOffset": 146172,
      "componentType": 5126,
      "count": 12181,
      "max": [
        0.9999937415122986,
        0.9999799132347107,
        0.9999967217445374
      ],
      "min": [
        -0.9999908208847046,
        -0.9999988675117493,
        -0.9999963641166687
      ],
      "type": "VEC3"
    },
    {
      "bufferView": 1,
      "componentType": 5126,
      "count": 12181,
      "max": [
        0.9995602369308472,
        0.9995579123497009
      ],
      "min": [
        0.0004397537268232554,
        0.00044208765029907227
      ],
      "type": "VEC2"
    },
    {
      "bufferView": 1,
      "byteOffset": 97448,
      "componentType": 5126,
      "count": 12181,
      "max": [
        0.9995602369308472,
        0.9995579123497009
      ],
      "min": [
        0.0004397537268232554,
        0.00044208765029907227
      ],
      "type": "VEC2"
    },
    {
      "bufferView": 0,
      "componentType": 5125,
      "count": 24384,
      "type": "SCALAR"
    }
  ],
  "asset": {
    "extras": {
      "author": "bhagathartworks (https://sketchfab.com/bhagathartworks)",
      "license": "CC-BY-4.0 (http://creativecommons.org/licenses/by/4.0/)",
      "source": "https://sketchfab.com/3d-models/autorikshaw-indian-tuk-tuk-5775d012693741008acff9dad410e92d",
      "title": "Autorikshaw - Indian Tuk Tuk"
    },
    "generator": "Sketchfab-16.65.0",
    "version": "2.0"
  },
  "bufferViews": [
    {
      "buffer": 0,
      "byteLength": 97536,
      "name": "floatBufferViews",
      "target": 34963
    },
    {
      "buffer": 0,
      "byteLength": 194896,
      "byteOffset": 97536,
      "byteStride": 8,
      "name": "floatBufferViews",
      "target": 34962
    },
    {
      "buffer": 0,
      "byteLength": 292344,
      "byteOffset": 292432,
      "byteStride": 12,
      "name": "floatBufferViews",
      "target": 34962
    }
  ],
  "buffers": [
    {
      "byteLength": 584776,
      "uri": "scene.bin"
    }
  ],
  "images": [
    {
      "uri": "textures/Autorickshaw_baseColor.png"
    },
    {
      "uri": "textures/Autorickshaw_metallicRoughness.png"
    }
  ],
  "materials": [
    {
      "alphaMode": "BLEND",
      "doubleSided": true,
      "name": "Autorickshaw",
      "pbrMetallicRoughness": {
        "baseColorTexture": {
          "index": 0
        },
        "metallicFactor": 0.0,
        "metallicRoughnessTexture": {
          "index": 1
        },
        "roughnessFactor": 0.5838731192320846
      }
    }
  ],
  "meshes": [
    {
      "name": "Autorickshaw_Autorickshaw_0",
      "primitives": [
        {
          "attributes": {
            "NORMAL": 1,
            "POSITION": 0,
            "TEXCOORD_0": 2,
            "TEXCOORD_1": 3
          },
          "indices": 4,
          "material": 0,
          "mode": 4
        }
      ]
    }
  ],
  "nodes": [
    {
      "children": [
        1
      ],
      "matrix": [
        2.482969045639038,
        0.0,
        0.0,
        0.0,
        0.0,
        5.513298807800022e-16,
        -2.482969045639038,
        0.0,
        0.0,
        2.482969045639038,
        5.513298807800022e-16,
        0.0,
        0.0,
        0.0,
        0.0,
        1.0
      ],
      "name": "Sketchfab_model"
    },
    {
      "children": [
        2
      ],
      "matrix": [
        0.009999999776482582,
        0.0,
        0.0,
        0.0,
        0.0,
        0.0,
        0.009999999776482582,
        0.0,
        0.0,
        -0.009999999776482582,
        0.0,
        0.0,
        0.0,
        0.0,
        0.0,
        1.0
      ],
      "name": "e401a1fbb87f422589f42826cb220fa0.fbx"
    },
    {
      "children": [
        3
      ],
      "name": "RootNode"
    },
    {
      "children": [
        4
      ],
      "matrix": [
        100.0,
        0.0,
        0.0,
        0.0,
        0.0,
        -1.629206793918314e-05,
        -99.99999999999868,
        0.0,
        0.0,
        99.99999999999868,
        -1.629206793918314e-05,
        0.0,
        0.0,
        0.0,
        0.0,
        1.0
      ],
      "name": "Autorickshaw"
    },
    {
      "mesh": 0,
      "name": "Autorickshaw_Autorickshaw_0"
    }
  ],
  "samplers": [
    {
      "magFilter": 9729,
      "minFilter": 9987,
      "wrapS": 10497,
      "wrapT": 10497
    }
  ],
  "scene": 0,
  "scenes": [
    {
      "name": "Sketchfab_Scene",
      "nodes": [
        0
      ]
    }
  ],
  "textures": [
    {
      "sampler": 0,
      "source": 0
    },
    {
      "sampler": 0,
      "source": 1
    }
  ]
}
