<svg xmlns="http://www.w3.org/2000/svg" viewBox="0 0 32 32">
  <!-- New pixel car favicon: bold, iconic, high contrast -->
  <!-- Main body -->
  <rect x="8" y="6" width="16" height="20" fill="#18191c" stroke="#fff" stroke-width="2"/>
  <!-- Windshield -->
  <rect x="12" y="9" width="8" height="5" fill="#4a90e2"/>
  <!-- Headlights -->
  <rect x="10" y="6" width="3" height="2" fill="#ffe066"/>
  <rect x="19" y="6" width="3" height="2" fill="#ffe066"/>
  <!-- Taillights -->
  <rect x="10" y="24" width="3" height="2" fill="#ff3c28"/>
  <rect x="19" y="24" width="3" height="2" fill="#ff3c28"/>
  <!-- Wheels -->
  <rect x="8" y="11" width="2" height="5" fill="#111"/>
  <rect x="22" y="11" width="2" height="5" fill="#111"/>
  <rect x="8" y="18" width="2" height="5" fill="#111"/>
  <rect x="22" y="18" width="2" height="5" fill="#111"/>
</svg>
  <!-- Pixel car favicon: bold, visible, pixel art style -->
  <rect x="6" y="7" width="20" height="18" fill="#18191c" stroke="#fff" stroke-width="2"/>
  <!-- Windshield -->
  <rect x="12" y="10" width="8" height="5" fill="#4a90e2"/>
  <!-- Wheels -->
  <rect x="7" y="22" width="3" height="5" fill="#111"/>
  <rect x="22" y="22" width="3" height="5" fill="#111"/>
  <!-- Taillights -->
  <rect x="8" y="20" width="2" height="2" fill="#ff3c28"/>
  <rect x="22" y="20" width="2" height="2" fill="#ff3c28"/>
</svg>
  <!-- Pixelated black car favicon -->
  <rect x="6" y="10" width="20" height="12" fill="#18191c" stroke="#fff" stroke-width="2"/>
  <!-- Blue windshield -->
  <rect x="12" y="13" width="8" height="4" fill="#4a90e2"/>
  <!-- Wheels -->
  <rect x="7" y="21" width="3" height="5" fill="#111"/>
  <rect x="22" y="21" width="3" height="5" fill="#111"/>
  <!-- Headlights -->
  <rect x="8" y="10" width="2" height="2" fill="#fff"/>
  <rect x="22" y="10" width="2" height="2" fill="#fff"/>
  <!-- Taillights -->
  <rect x="8" y="20" width="2" height="2" fill="#ff3c28"/>
  <rect x="22" y="20" width="2" height="2" fill="#ff3c28"/>
</svg>
